<?xml version="1.0" encoding="utf-8"?>
<!-- Generator: Adobe Illustrator 19.0.0, SVG Export Plug-In . SVG Version: 6.00 Build 0)  -->
<svg version="1.1" id="Capa_1" xmlns="http://www.w3.org/2000/svg" xmlns:xlink="http://www.w3.org/1999/xlink" x="0px" y="0px"
	 viewBox="0 0 633.9 440.6" style="enable-background:new 0 0 633.9 440.6;" xml:space="preserve">
<style type="text/css">
	.st0{fill:#FFFFFF;}
</style>
<g id="XMLID_1_">
	<path id="XMLID_192_" class="st0" d="M384.5,228.7c31.7,0,57.5-25.9,57.3-57.6c-0.1-31.7-26.3-57-57.9-57h-23.4h-90.6h-19.1
		c-10.6,0-19.1-8.6-19.1-19.1v0c0-10.6,8.6-19.1,19.1-19.1h133.7c52.7,0,95.5,42.8,95.5,95.5c0,52.8-42.8,95.5-95.5,95.5
		c-0.2,0-71.8,0-72,0c-12.1,0-19.5-8.3-19.5-18.8c0-10.2,7.4-19.4,19.6-19.4C312.8,228.7,384.4,228.7,384.5,228.7z"/>
	<path id="XMLID_56_" class="st0" d="M249.3,38.2c-31.7,0-57.5,25.9-57.3,57.6c0.1,31.7,26.3,57,57.9,57h23.4H364h19.1
		c10.6,0,19.1,8.6,19.1,19.1v0c0,10.6-8.6,19.1-19.1,19.1H249.3c-52.7,0-95.5-42.8-95.5-95.5c0-52.8,42.8-95.5,95.5-95.5
		c0.2,0,71.8,0,72,0c12.1,0,19.5,8.3,19.5,18.8c0,10.2-7.4,19.4-19.6,19.4C321.1,38.2,249.5,38.2,249.3,38.2z"/>
</g>
<g id="XMLID_58_">
	<path class="st0" d="M65.5,363.4c2.3,3.1,3.5,6.8,3.5,11.1c0,6.4-2.6,11.3-7.7,14.7c-5.1,3.5-12.5,5.2-22.2,5.2H0v-72.5h37.1
		c9.3,0,16.3,1.7,21.1,5.1c4.8,3.4,7.3,8,7.3,13.8c0,3.5-0.8,6.5-2.5,9.3c-1.7,2.7-4.1,4.9-7.2,6.5
		C59.9,358.1,63.1,360.3,65.5,363.4z M20.3,336.7v14h14.1c6.9,0,10.4-2.3,10.4-7c0-4.6-3.5-6.9-10.4-6.9H20.3z M48.3,372.3
		c0-4.9-3.6-7.4-10.8-7.4H20.3v14.7h17.2C44.7,379.6,48.3,377.2,48.3,372.3z"/>
	<path class="st0" d="M158.6,378.6v15.9h-58.2v-72.5h56.9v15.9h-36.6V350h32.2v15.3h-32.2v13.3H158.6z"/>
	<path class="st0" d="M199.2,393.7c-5.5-1.5-10-3.4-13.5-5.8l6.7-15.1c3.2,2.1,7,3.9,11.3,5.2c4.3,1.3,8.5,2,12.6,2
		c7.9,0,11.8-2,11.8-5.9c0-2.1-1.1-3.6-3.4-4.6c-2.2-1-5.9-2.1-10.8-3.2c-5.5-1.2-10-2.4-13.7-3.8c-3.7-1.3-6.8-3.5-9.4-6.5
		c-2.6-3-3.9-7-3.9-12c0-4.4,1.2-8.4,3.6-12c2.4-3.6,6-6.4,10.8-8.4c4.8-2.1,10.7-3.1,17.7-3.1c4.8,0,9.5,0.5,14.1,1.6
		c4.6,1.1,8.7,2.6,12.2,4.7l-6.3,15.2c-6.9-3.7-13.6-5.6-20.1-5.6c-4.1,0-7,0.6-8.9,1.8c-1.9,1.2-2.8,2.8-2.8,4.7
		c0,1.9,1.1,3.4,3.3,4.4c2.2,1,5.8,2,10.7,3c5.5,1.2,10.1,2.4,13.7,3.8c3.6,1.3,6.8,3.5,9.4,6.4c2.7,2.9,4,6.9,4,12
		c0,4.4-1.2,8.3-3.6,11.8c-2.4,3.5-6,6.3-10.9,8.4c-4.8,2.1-10.7,3.2-17.6,3.2C210.4,395.9,204.7,395.2,199.2,393.7z"/>
	<path class="st0" d="M292.9,338.2h-22.3v-16.3h65v16.3h-22.2v56.3h-20.5V338.2z"/>
	<path class="st0" d="M378.9,391c-6.1-3.2-10.9-7.7-14.4-13.5c-3.5-5.7-5.2-12.2-5.2-19.4c0-7.2,1.7-13.6,5.2-19.4
		c3.5-5.7,8.3-10.2,14.4-13.5c6.1-3.2,13-4.9,20.7-4.9s14.6,1.6,20.7,4.9c6.1,3.2,10.9,7.7,14.4,13.5c3.5,5.7,5.2,12.2,5.2,19.4
		c0,7.2-1.7,13.6-5.2,19.4c-3.5,5.7-8.3,10.2-14.4,13.5c-6.1,3.2-13,4.9-20.7,4.9S385,394.3,378.9,391z M409.5,376.3
		c3-1.7,5.3-4.2,7-7.3c1.7-3.1,2.6-6.8,2.6-10.8c0-4.1-0.9-7.7-2.6-10.8c-1.7-3.1-4.1-5.6-7-7.3c-3-1.7-6.3-2.6-9.9-2.6
		c-3.7,0-7,0.9-9.9,2.6c-3,1.7-5.3,4.2-7,7.3c-1.7,3.1-2.6,6.8-2.6,10.8c0,4.1,0.9,7.7,2.6,10.8c1.7,3.1,4.1,5.6,7,7.3
		c3,1.7,6.3,2.6,9.9,2.6C403.2,378.9,406.5,378,409.5,376.3z"/>
	<path class="st0" d="M540.4,321.9v72.5h-16.9l-32-38.7v38.7h-20.1v-72.5h16.9l32,38.7v-38.7H540.4z"/>
	<path class="st0" d="M633.9,378.6v15.9h-58.2v-72.5h56.9v15.9h-36.6V350h32.2v15.3h-32.2v13.3H633.9z"/>
	<g id="XMLID_57_">
		<g>
			<path class="st0" d="M66,440.1c-1.7-1-3-2.3-4-3.9c-1-1.7-1.5-3.6-1.5-5.6c0-2.1,0.5-4,1.5-5.6c1-1.7,2.3-3,4-3.9
				c1.7-0.9,3.6-1.4,5.7-1.4c1.6,0,3,0.3,4.3,0.8c1.3,0.5,2.4,1.3,3.4,2.2l-1,1c-1.7-1.7-4-2.6-6.7-2.6c-1.8,0-3.5,0.4-5,1.2
				s-2.7,2-3.5,3.4c-0.8,1.5-1.3,3.1-1.3,4.9c0,1.8,0.4,3.4,1.3,4.9c0.8,1.5,2,2.6,3.5,3.4s3.1,1.2,5,1.2c2.7,0,4.9-0.9,6.7-2.6l1,1
				c-0.9,1-2.1,1.7-3.4,2.3c-1.3,0.5-2.8,0.8-4.3,0.8C69.6,441.5,67.7,441,66,440.1z"/>
			<path class="st0" d="M71.8,442.2c-2.2,0-4.3-0.5-6.1-1.5l0,0c-1.8-1-3.3-2.4-4.3-4.2c-1-1.8-1.6-3.8-1.6-6c0-2.2,0.5-4.2,1.6-6
				c1-1.8,2.5-3.2,4.3-4.2c1.8-1,3.9-1.5,6.1-1.5c1.6,0,3.2,0.3,4.6,0.8c1.4,0.5,2.6,1.4,3.6,2.4c0.3,0.3,0.3,0.7,0,1l-1,1
				c-0.1,0.1-0.3,0.2-0.5,0.2c-0.2,0-0.4-0.1-0.5-0.2c-1.6-1.6-3.6-2.4-6.1-2.4c-1.7,0-3.2,0.4-4.6,1.1c-1.4,0.8-2.4,1.8-3.2,3.2
				c-0.8,1.3-1.2,2.9-1.2,4.5s0.4,3.2,1.2,4.5c0.8,1.3,1.9,2.4,3.2,3.2c1.4,0.8,2.9,1.1,4.6,1.1c2.5,0,4.5-0.8,6.1-2.4
				c0.1-0.1,0.3-0.2,0.5-0.2c0.2,0,0.4,0.1,0.5,0.2l1,1c0.3,0.3,0.3,0.7,0,1c-1,1.1-2.2,1.9-3.7,2.4
				C74.9,441.9,73.4,442.2,71.8,442.2z M66.4,439.4c1.6,0.9,3.4,1.3,5.4,1.3c0,0,0,0,0,0c-1.9,0-3.7-0.5-5.3-1.3
				c-1.6-0.9-2.9-2.1-3.8-3.7c-0.9-1.6-1.4-3.3-1.4-5.2c0-1.9,0.5-3.7,1.4-5.2c0.9-1.6,2.2-2.8,3.8-3.7c1.6-0.9,3.4-1.3,5.3-1.3
				c0,0,0,0,0,0c-2,0-3.8,0.4-5.4,1.3c-1.6,0.9-2.8,2.1-3.8,3.7c-0.9,1.6-1.4,3.3-1.4,5.3c0,1.9,0.5,3.7,1.4,5.3
				C63.5,437.3,64.8,438.5,66.4,439.4L66.4,439.4z M78.1,438.7c-0.6,0.5-1.2,0.8-1.9,1.1C76.9,439.6,77.5,439.2,78.1,438.7z
				 M75.5,420.8c1,0.3,1.8,0.8,2.6,1.4c-0.7-0.5-1.4-1-2.3-1.3C75.7,420.9,75.6,420.8,75.5,420.8z"/>
		</g>
		<g>
			<path class="st0" d="M115.6,440c-1.7-1-3.1-2.3-4-4c-1-1.7-1.5-3.5-1.5-5.6c0-2.1,0.5-3.9,1.5-5.6c1-1.7,2.3-3,4-4
				c1.7-1,3.6-1.4,5.8-1.4c2.1,0,4,0.5,5.8,1.4c1.7,1,3.1,2.3,4,3.9c1,1.7,1.5,3.6,1.5,5.6c0,2.1-0.5,4-1.5,5.6c-1,1.7-2.3,3-4,3.9
				c-1.7,0.9-3.6,1.4-5.8,1.4C119.3,441.5,117.3,441,115.6,440z M126.3,438.8c1.5-0.8,2.6-2,3.5-3.4c0.8-1.5,1.3-3.1,1.3-4.9
				c0-1.8-0.4-3.4-1.3-4.9c-0.8-1.5-2-2.6-3.5-3.4s-3.1-1.2-4.9-1.2c-1.8,0-3.5,0.4-4.9,1.2s-2.6,2-3.5,3.4
				c-0.8,1.5-1.3,3.1-1.3,4.9c0,1.8,0.4,3.4,1.3,4.9c0.8,1.5,2,2.6,3.5,3.4s3.1,1.2,4.9,1.2C123.2,440,124.9,439.6,126.3,438.8z"/>
			<path class="st0" d="M121.4,442.2c-2.2,0-4.3-0.5-6.1-1.5c0,0,0,0,0,0c-1.8-1-3.3-2.4-4.3-4.2c-1-1.8-1.6-3.8-1.6-6
				c0-2.2,0.5-4.2,1.6-6c1-1.8,2.5-3.2,4.3-4.2c1.8-1,3.9-1.5,6.1-1.5c2.2,0,4.3,0.5,6.1,1.5c1.8,1,3.3,2.4,4.3,4.2
				c1,1.8,1.6,3.8,1.6,6c0,2.2-0.5,4.2-1.6,6c-1,1.8-2.5,3.2-4.3,4.2C125.7,441.7,123.6,442.2,121.4,442.2z M116,439.4
				c1.6,0.9,3.4,1.3,5.4,1.3c2,0,3.8-0.4,5.4-1.3c1.6-0.9,2.9-2.1,3.8-3.7c0.9-1.6,1.4-3.3,1.4-5.3c0-1.9-0.5-3.7-1.4-5.3
				c-0.9-1.5-2.2-2.8-3.8-3.7c-1.6-0.9-3.4-1.3-5.4-1.3c1.9,0,3.7,0.4,5.3,1.3c1.6,0.9,2.8,2.1,3.7,3.7c0.9,1.6,1.4,3.3,1.4,5.2
				c0,1.9-0.5,3.7-1.4,5.2c-0.9,1.6-2.2,2.8-3.7,3.7l0,0c-1.6,0.9-3.3,1.3-5.3,1.3c-1.9,0-3.7-0.4-5.3-1.3c-1.6-0.9-2.8-2.1-3.8-3.7
				c-0.9-1.6-1.4-3.3-1.4-5.2c0-1.9,0.5-3.7,1.4-5.2c0.9-1.6,2.2-2.8,3.8-3.7c1.6-0.9,3.4-1.3,5.3-1.3c-2,0-3.8,0.5-5.4,1.3
				c-1.6,0.9-2.9,2.1-3.8,3.7c-0.9,1.6-1.4,3.3-1.4,5.2c0,1.9,0.5,3.7,1.4,5.2C113.1,437.3,114.4,438.5,116,439.4L116,439.4z
				 M121.4,421.7c-1.7,0-3.2,0.4-4.6,1.1c-1.4,0.8-2.4,1.8-3.2,3.2c-0.8,1.3-1.2,2.9-1.2,4.5s0.4,3.2,1.2,4.5
				c0.8,1.3,1.9,2.4,3.2,3.2c2.7,1.5,6.5,1.5,9.2,0l0,0c1.3-0.8,2.4-1.8,3.2-3.2c0.8-1.3,1.2-2.9,1.2-4.5s-0.4-3.2-1.2-4.5
				c-0.8-1.3-1.9-2.4-3.2-3.2C124.6,422.1,123.1,421.7,121.4,421.7z"/>
		</g>
		<g>
			<path class="st0" d="M183.7,419.6v21.7h-1.3l-14.8-18.8v18.8H166v-21.7h1.3l14.7,18.8v-18.8H183.7z"/>
			<path class="st0" d="M183.7,442.1h-1.3c-0.2,0-0.4-0.1-0.6-0.3l-13.5-17.2v16.7c0,0.4-0.3,0.7-0.7,0.7H166
				c-0.4,0-0.7-0.3-0.7-0.7v-21.7c0-0.4,0.3-0.7,0.7-0.7h1.3c0.2,0,0.4,0.1,0.6,0.3l13.4,17.2v-16.7c0-0.4,0.3-0.7,0.7-0.7h1.6
				c0.4,0,0.7,0.3,0.7,0.7v21.7C184.4,441.7,184.1,442.1,183.7,442.1z M182.8,440.6h0.2v-20.2h-0.1v18.1c0,0.3-0.2,0.6-0.5,0.7
				c-0.3,0.1-0.6,0-0.8-0.2L167,420.4h-0.2v20.2h0.1v-18.1c0-0.3,0.2-0.6,0.5-0.7c0.3-0.1,0.6,0,0.8,0.2L182.8,440.6z"/>
		</g>
		<g>
			<path class="st0" d="M236.8,419.6v21.7h-1.3l-14.8-18.8v18.8h-1.6v-21.7h1.3l14.7,18.8v-18.8H236.8z"/>
			<path class="st0" d="M236.8,442.1h-1.3c-0.2,0-0.4-0.1-0.6-0.3l-13.5-17.2v16.7c0,0.4-0.3,0.7-0.7,0.7h-1.6
				c-0.4,0-0.7-0.3-0.7-0.7v-21.7c0-0.4,0.3-0.7,0.7-0.7h1.3c0.2,0,0.4,0.1,0.6,0.3l13.4,17.2v-16.7c0-0.4,0.3-0.7,0.7-0.7h1.6
				c0.4,0,0.7,0.3,0.7,0.7v21.7C237.5,441.7,237.2,442.1,236.8,442.1z M235.9,440.6h0.2v-20.2H236v18.1c0,0.3-0.2,0.6-0.5,0.7
				c-0.3,0.1-0.6,0-0.8-0.2l-14.5-18.6h-0.2v20.2h0.1v-18.1c0-0.3,0.2-0.6,0.5-0.7c0.3-0.1,0.6,0,0.8,0.2L235.9,440.6z"/>
		</g>
		<g>
			<path class="st0" d="M287.2,439.9v1.4h-15v-21.7h14.5v1.4h-12.9v8.6h11.6v1.4h-11.6v8.9H287.2z"/>
			<path class="st0" d="M287.2,442.1h-15c-0.4,0-0.7-0.3-0.7-0.7v-21.7c0-0.4,0.3-0.7,0.7-0.7h14.5c0.4,0,0.7,0.3,0.7,0.7v1.4
				c0,0.4-0.3,0.7-0.7,0.7h-12.2v7.1h10.8c0.4,0,0.7,0.3,0.7,0.7v1.4c0,0.4-0.3,0.7-0.7,0.7h-10.8v7.4h12.7c0.4,0,0.7,0.3,0.7,0.7
				v1.4C287.9,441.7,287.6,442.1,287.2,442.1z M273,440.6h0.6c-0.3-0.1-0.5-0.4-0.5-0.7V431c0-0.3,0.2-0.6,0.5-0.7
				c-0.3-0.1-0.5-0.4-0.5-0.7v-8.6c0-0.3,0.2-0.6,0.5-0.7H273V440.6z"/>
		</g>
		<g>
			<path class="st0" d="M324.2,440.1c-1.7-1-3-2.3-4-3.9c-1-1.7-1.5-3.6-1.5-5.6c0-2.1,0.5-4,1.5-5.6c1-1.7,2.3-3,4-3.9
				c1.7-0.9,3.6-1.4,5.7-1.4c1.6,0,3,0.3,4.3,0.8c1.3,0.5,2.4,1.3,3.4,2.2l-1,1c-1.7-1.7-4-2.6-6.7-2.6c-1.8,0-3.5,0.4-5,1.2
				s-2.7,2-3.5,3.4c-0.8,1.5-1.3,3.1-1.3,4.9c0,1.8,0.4,3.4,1.3,4.9c0.8,1.5,2,2.6,3.5,3.4s3.1,1.2,5,1.2c2.7,0,4.9-0.9,6.7-2.6l1,1
				c-0.9,1-2.1,1.7-3.4,2.3c-1.3,0.5-2.8,0.8-4.3,0.8C327.8,441.5,325.9,441,324.2,440.1z"/>
			<path class="st0" d="M329.9,442.2c-2.2,0-4.3-0.5-6.1-1.5c0,0,0,0,0,0c-1.8-1-3.3-2.4-4.3-4.2c-1-1.8-1.6-3.8-1.6-6
				c0-2.2,0.5-4.2,1.6-6c1-1.8,2.5-3.2,4.3-4.2c1.8-1,3.9-1.5,6.1-1.5c1.6,0,3.2,0.3,4.6,0.8c1.4,0.5,2.6,1.4,3.6,2.4
				c0.3,0.3,0.3,0.7,0,1l-1,1c-0.1,0.1-0.3,0.2-0.5,0.2c-0.2,0-0.4-0.1-0.5-0.2c-1.6-1.6-3.6-2.4-6.1-2.4c-1.7,0-3.2,0.4-4.6,1.1
				c-1.4,0.8-2.4,1.8-3.2,3.2c-0.8,1.3-1.2,2.9-1.2,4.5s0.4,3.2,1.2,4.5c0.8,1.3,1.9,2.4,3.2,3.2c1.4,0.8,2.9,1.1,4.6,1.1
				c2.5,0,4.5-0.8,6.1-2.4c0.1-0.1,0.4-0.2,0.5-0.2c0.2,0,0.4,0.1,0.5,0.2l1,1c0.3,0.3,0.3,0.7,0,1c-1,1.1-2.2,1.9-3.7,2.4
				C333.1,441.9,331.5,442.2,329.9,442.2z M324.5,439.4c1.6,0.9,3.4,1.3,5.4,1.3c0,0,0,0,0,0c-1.9,0-3.7-0.5-5.3-1.3
				c-1.6-0.9-2.9-2.1-3.8-3.7c-0.9-1.6-1.4-3.3-1.4-5.2s0.5-3.7,1.4-5.2c0.9-1.6,2.2-2.8,3.8-3.7c1.6-0.9,3.4-1.3,5.3-1.3
				c0,0,0,0,0,0c-2,0-3.8,0.4-5.4,1.3c-1.6,0.9-2.8,2.1-3.8,3.7c-0.9,1.6-1.4,3.3-1.4,5.3c0,1.9,0.5,3.7,1.4,5.3
				C321.7,437.3,322.9,438.5,324.5,439.4L324.5,439.4z M336.2,438.7c-0.6,0.5-1.2,0.8-1.9,1.1C335,439.6,335.7,439.2,336.2,438.7z
				 M333.6,420.8c1,0.3,1.9,0.8,2.7,1.4c-0.7-0.5-1.4-1-2.3-1.3C333.9,420.9,333.7,420.8,333.6,420.8z"/>
		</g>
		<g>
			<path class="st0" d="M374.7,421.1h-7.8v-1.4h17.2v1.4h-7.8v20.3h-1.6V421.1z"/>
			<path class="st0" d="M376.3,442.1h-1.6c-0.4,0-0.7-0.3-0.7-0.7v-19.5h-7.1c-0.4,0-0.7-0.3-0.7-0.7v-1.4c0-0.4,0.3-0.7,0.7-0.7
				h17.2c0.4,0,0.7,0.3,0.7,0.7v1.4c0,0.4-0.3,0.7-0.7,0.7H377v19.5C377,441.7,376.7,442.1,376.3,442.1z M375.4,440.6h0.1v-19.5
				c0-0.3,0.2-0.6,0.5-0.7h-1.2c0.3,0.1,0.5,0.4,0.5,0.7V440.6z"/>
		</g>
		<g>
			<path class="st0" d="M415.9,419.6h1.6v21.7h-1.6V419.6z"/>
			<path class="st0" d="M417.4,442.1h-1.6c-0.4,0-0.7-0.3-0.7-0.7v-21.7c0-0.4,0.3-0.7,0.7-0.7h1.6c0.4,0,0.7,0.3,0.7,0.7v21.7
				C418.2,441.7,417.8,442.1,417.4,442.1z M416.6,440.6h0.1v-20.2h-0.1V440.6z"/>
		</g>
		<g>
			<path class="st0" d="M456.3,440c-1.7-1-3.1-2.3-4-4c-1-1.7-1.5-3.5-1.5-5.6c0-2.1,0.5-3.9,1.5-5.6c1-1.7,2.3-3,4-4
				c1.7-1,3.6-1.4,5.8-1.4c2.1,0,4,0.5,5.8,1.4c1.7,1,3.1,2.3,4,3.9c1,1.7,1.5,3.6,1.5,5.6c0,2.1-0.5,4-1.5,5.6c-1,1.7-2.3,3-4,3.9
				c-1.7,0.9-3.6,1.4-5.8,1.4C460,441.5,458,441,456.3,440z M467,438.8c1.5-0.8,2.6-2,3.5-3.4c0.8-1.5,1.3-3.1,1.3-4.9
				c0-1.8-0.4-3.4-1.3-4.9c-0.8-1.5-2-2.6-3.5-3.4c-1.5-0.8-3.1-1.2-4.9-1.2c-1.8,0-3.5,0.4-4.9,1.2c-1.5,0.8-2.6,2-3.5,3.4
				c-0.8,1.5-1.3,3.1-1.3,4.9c0,1.8,0.4,3.4,1.3,4.9c0.8,1.5,2,2.6,3.5,3.4c1.5,0.8,3.1,1.2,4.9,1.2
				C463.9,440,465.5,439.6,467,438.8z"/>
			<path class="st0" d="M462.1,442.2c-2.2,0-4.3-0.5-6.1-1.5c0,0,0,0,0,0c-1.8-1-3.3-2.4-4.3-4.2c-1-1.8-1.6-3.8-1.6-6
				s0.5-4.2,1.6-6c1-1.8,2.5-3.2,4.3-4.2c1.8-1,3.9-1.5,6.1-1.5c2.2,0,4.3,0.5,6.1,1.5c1.8,1,3.3,2.4,4.3,4.2c1,1.8,1.6,3.8,1.6,6
				c0,2.2-0.5,4.2-1.6,6c-1,1.8-2.5,3.2-4.3,4.2C466.4,441.7,464.3,442.2,462.1,442.2z M456.7,439.4c1.6,0.9,3.4,1.3,5.4,1.3
				c2,0,3.8-0.4,5.4-1.3c1.6-0.9,2.9-2.1,3.8-3.7c0.9-1.6,1.4-3.3,1.4-5.3c0-1.9-0.5-3.7-1.4-5.3c-0.9-1.5-2.2-2.8-3.8-3.7
				c-1.6-0.9-3.4-1.3-5.4-1.3c1.9,0,3.7,0.4,5.3,1.3c1.6,0.9,2.8,2.1,3.7,3.7c0.9,1.6,1.4,3.3,1.4,5.2s-0.5,3.7-1.4,5.2
				c-0.9,1.6-2.2,2.8-3.7,3.7l0,0c-1.6,0.9-3.4,1.3-5.3,1.3c-1.9,0-3.7-0.4-5.3-1.3c-1.6-0.9-2.8-2.1-3.8-3.7
				c-0.9-1.6-1.4-3.3-1.4-5.2c0-1.9,0.5-3.7,1.4-5.2c0.9-1.6,2.2-2.8,3.8-3.7c1.6-0.9,3.4-1.3,5.3-1.3c-2,0-3.8,0.5-5.4,1.3
				c-1.6,0.9-2.9,2.1-3.8,3.7c-0.9,1.6-1.4,3.3-1.4,5.2c0,1.9,0.5,3.7,1.4,5.2C453.8,437.3,455.1,438.5,456.7,439.4L456.7,439.4z
				 M462.1,421.7c-1.7,0-3.2,0.4-4.6,1.1c-1.4,0.8-2.4,1.8-3.2,3.2c-0.8,1.3-1.2,2.9-1.2,4.5c0,1.7,0.4,3.2,1.2,4.5
				c0.8,1.3,1.9,2.4,3.2,3.2c2.7,1.5,6.4,1.5,9.2,0l0,0c1.3-0.8,2.4-1.8,3.2-3.2c0.8-1.3,1.2-2.9,1.2-4.5s-0.4-3.2-1.2-4.5
				c-0.8-1.3-1.9-2.4-3.2-3.2C465.3,422.1,463.8,421.7,462.1,421.7z M467,438.8L467,438.8L467,438.8z"/>
		</g>
		<g>
			<path class="st0" d="M524.4,419.6v21.7h-1.3l-14.8-18.8v18.8h-1.6v-21.7h1.3l14.7,18.8v-18.8H524.4z"/>
			<path class="st0" d="M524.4,442.1h-1.3c-0.2,0-0.4-0.1-0.6-0.3L509,424.6v16.7c0,0.4-0.3,0.7-0.7,0.7h-1.6
				c-0.4,0-0.7-0.3-0.7-0.7v-21.7c0-0.4,0.3-0.7,0.7-0.7h1.3c0.2,0,0.4,0.1,0.6,0.3l13.4,17.2v-16.7c0-0.4,0.3-0.7,0.7-0.7h1.6
				c0.4,0,0.7,0.3,0.7,0.7v21.7C525.1,441.7,524.8,442.1,524.4,442.1z M523.5,440.6h0.2v-20.2h-0.1v18.1c0,0.3-0.2,0.6-0.5,0.7
				c-0.3,0.1-0.6,0-0.8-0.2l-14.5-18.6h-0.2v20.2h0.1v-18.1c0-0.3,0.2-0.6,0.5-0.7c0.3-0.1,0.6,0,0.8,0.2L523.5,440.6z"/>
		</g>
		<g>
			<path class="st0" d="M561,440.7c-1.4-0.5-2.6-1.3-3.4-2.1l0.7-1.2c0.8,0.8,1.8,1.5,3.1,2c1.3,0.5,2.6,0.8,4.1,0.8
				c2.1,0,3.6-0.4,4.7-1.2c1.1-0.8,1.6-1.8,1.6-3.1c0-1-0.3-1.7-0.8-2.3c-0.6-0.6-1.3-1-2.1-1.3c-0.8-0.3-1.9-0.6-3.3-1
				c-1.6-0.4-2.9-0.8-3.8-1.1c-1-0.4-1.8-0.9-2.4-1.7c-0.7-0.8-1-1.8-1-3.1c0-1.1,0.3-2,0.8-2.9c0.6-0.9,1.4-1.6,2.6-2.1
				c1.1-0.5,2.6-0.8,4.3-0.8c1.2,0,2.4,0.2,3.5,0.5c1.2,0.4,2.2,0.8,3,1.4l-0.6,1.3c-0.9-0.6-1.8-1.1-2.9-1.4
				c-1-0.3-2.1-0.5-3.1-0.5c-2,0-3.5,0.4-4.6,1.2s-1.5,1.8-1.5,3.1c0,1,0.3,1.7,0.8,2.3c0.6,0.6,1.3,1,2.1,1.3c0.8,0.3,2,0.6,3.4,1
				c1.6,0.4,2.9,0.8,3.8,1.1c0.9,0.4,1.8,0.9,2.4,1.7c0.7,0.8,1,1.8,1,3.1c0,1.1-0.3,2-0.9,2.9c-0.6,0.9-1.4,1.6-2.6,2.1
				c-1.2,0.5-2.6,0.8-4.3,0.8C564,441.5,562.4,441.2,561,440.7z"/>
			<path class="st0" d="M565.5,442.2c-1.7,0-3.3-0.3-4.8-0.9c0,0,0,0,0,0c-1.5-0.6-2.8-1.4-3.6-2.3c-0.2-0.2-0.3-0.6-0.1-0.9
				l0.7-1.2c0.1-0.2,0.3-0.3,0.5-0.3c0.2,0,0.4,0.1,0.6,0.2c0.7,0.7,1.6,1.3,2.8,1.8c1.2,0.5,2.5,0.7,3.8,0.7c1.9,0,3.3-0.3,4.2-1
				c0.9-0.6,1.3-1.5,1.3-2.5c0-0.8-0.2-1.4-0.6-1.8c-0.5-0.5-1.1-0.9-1.8-1.2c-0.8-0.3-1.9-0.6-3.3-0.9c-1.6-0.4-2.9-0.8-3.9-1.2
				c-1.1-0.4-2-1.1-2.7-1.9c-0.8-0.9-1.2-2.1-1.2-3.6c0-1.2,0.3-2.3,1-3.3c0.6-1,1.6-1.8,2.9-2.4c1.2-0.6,2.8-0.8,4.6-0.8
				c1.3,0,2.5,0.2,3.7,0.6c1.2,0.4,2.3,0.9,3.2,1.5c0.3,0.2,0.4,0.6,0.2,0.9l-0.6,1.3c-0.1,0.2-0.3,0.3-0.5,0.4
				c-0.2,0.1-0.4,0-0.6-0.1c-0.8-0.6-1.7-1-2.7-1.3c-1-0.3-1.9-0.4-2.9-0.4c-1.8,0-3.2,0.4-4.1,1.1c-0.9,0.7-1.3,1.5-1.3,2.6
				c0,0.8,0.2,1.4,0.6,1.8c0.5,0.5,1.1,0.9,1.8,1.2c0.8,0.3,1.9,0.6,3.3,1c1.6,0.4,2.9,0.8,3.9,1.2c1.1,0.4,2,1,2.7,1.9
				c0.8,0.9,1.2,2.1,1.2,3.5c0,1.2-0.3,2.3-1,3.3c-0.6,1-1.6,1.8-2.9,2.3C568.9,441.9,567.4,442.2,565.5,442.2z M567.9,431.1
				c0.4,0.1,0.8,0.3,1.2,0.4c0.9,0.3,1.7,0.9,2.3,1.5c0.7,0.7,1,1.7,1,2.8c0,1.4-0.5,2.6-1.6,3.5c0.4-0.3,0.8-0.7,1-1.1
				c0.5-0.8,0.7-1.6,0.7-2.5c0-1.1-0.3-1.9-0.8-2.6c-0.6-0.7-1.3-1.2-2.2-1.5C569.2,431.5,568.6,431.3,567.9,431.1z M561.2,421.3
				c-0.7,0.4-1.2,0.9-1.5,1.5c-0.5,0.8-0.7,1.6-0.7,2.5c0,1.1,0.3,2,0.8,2.6c0.6,0.7,1.3,1.2,2.2,1.5c0.9,0.4,2.2,0.7,3.7,1.1
				c0.5,0.1,0.9,0.2,1.3,0.3c-0.3-0.1-0.7-0.2-1.1-0.3c-1.5-0.4-2.6-0.7-3.5-1c-0.9-0.3-1.7-0.9-2.3-1.5c-0.7-0.7-1-1.7-1-2.8
				c0-1.5,0.6-2.8,1.8-3.7C561,421.4,561.1,421.4,561.2,421.3z"/>
		</g>
	</g>
</g>
</svg>
